# xmcd
#
# Track frame offsets: 
#        150
#        9967
#        18725
#        29917
#        40745
#        51245
#        60885
#        71100
#        82627
#        92932
#        103617
#        117260
#        128592
#        139090
#        147247
#        157817
#        166940
#        177987
#        187777
#        198934
#        208890
#        217757
#        229147
#        237817
#        250277
#        259365
#        268170
#        280500
#        290202
#        300110
#        307315
#
# Disc length: 4222 seconds
#
# Revision: 0
# Processed by: cddbd v1.5.1PL0 Copyright (c) Steve Scherf et al.
# Submitted via: ExactAudioCopy v0.95a4
#
DISCID=b7107c1f
DTITLE=Various Artist - The 'D' Singles Volume 3 - Disc 4
DYEAR=1900
DGENRE=Country
TTITLE0=Cecil Bowman: Most Beuatiful
TTITLE1=Cecil Bowman: Whispering Lips
TTITLE2=Ted Doyle: The Life You've Lived
TTITLE3=Ted Doyle: My Baby's Gone Again
TTITLE4=Ray Pressley: Let's Try Again
TTITLE5=Ray Pressley: She Never Loved At All
TTITLE6=Eddie Noack: Too Weak To Go
TTITLE7=Eddie Noack: Firewater Luke
TTITLE8=Charles Drake: A Fools Careless Love
TTITLE9=Charles Drake: She Wore Another Name
TTITLE10=Leon Payne: Blue Side Of Lonesome
TTITLE11=Leon Payne: Things Have Gone To Pieces
TTITLE12=Billy Martin: These Walls
TTITLE13=Billy Martin: Till Next Saturday Night
TTITLE14=Country Johnny Mathis: When I Came Thru Town
TTITLE15=Country Johnny Mathis: Only Time Will Tell
TTITLE16=Perk Williams: You Traveled Too Far
TTITLE17=Perk Williams: You're Not My Angel Anymore
TTITLE18=Claude Gray: Home Coming In Heaven
TTITLE19=Claude Gray: When The Light Shines In The Valley
TTITLE20=Tony Douglas: I'll Be Dead Lots Longer
TTITLE21=Tony Douglas: Familiar Heartaches
TTITLE22=Dean Evans: You're Walking On Dangerous Ground
TTITLE23=Dean Evans: I Miss You So Much I Could Die
TTITLE24=Fitz Morris: Fishing Tales
TTITLE25=Fitz Morris: Edge Of Paradise
TTITLE26=Fred Crawford: I'm All Alone
TTITLE27=Fred Crawford: Charlies Gone
TTITLE28=Eddie Noack: The Life You've Lived
TTITLE29=Eddie Noack: You Know What For You Know Who
TTITLE30=Eddie Noack: If I'm Dreaming
EXTD=
EXTT0=
EXTT1=
EXTT2=
EXTT3=
EXTT4=
EXTT5=
EXTT6=
EXTT7=
EXTT8=
EXTT9=
EXTT10=
EXTT11=
EXTT12=
EXTT13=
EXTT14=
EXTT15=
EXTT16=
EXTT17=
EXTT18=
EXTT19=
EXTT20=
EXTT21=
EXTT22=
EXTT23=
EXTT24=
EXTT25=
EXTT26=
EXTT27=
EXTT28=
EXTT29=
EXTT30=
PLAYORDER=
